{"title":"Valentine's.Day.2010.1080p.BluRay.DTS.x264-LTT","uid":5531035,"size":7213308982,"categoryP":"video","categoryS":"hd___movies","magnet":"?xt=urn:btih:71c8c43e822977fd559628db0e1b218ec3e3994f&amp;dn=Valentine%5C%27s.Day.2010.1080p.BluRay.DTS.x264-LTT&amp;tr=udp%3A%2F%2Ftracker.openbittorrent.com%3A80&amp;tr=udp%3A%2F%2Fopen.demonii.com%3A1337&amp;tr=udp%3A%2F%2Ftracker.coppersurfer.tk%3A6969&amp;tr=udp%3A%2F%2Fexodus.desync.com%3A6969","seeders":1,"leechers":0,"uploader":"Ltt_01","files":2,"time":1272923993,"description":"Valentine's.Day.2010.1080p.BluRay.DTS.mkv\n*****************************************\n\nTiTLE......  Valentine's Day\nYEAR.......  2010\nGENRE......  Comedy | Romance  \niMDB RATE..  User Rating: 5.7/10 (9,127 votes)\niMDB URL... &lt;a href=&quot; http://www.imdb.com/title/tt0817230/&quot; rel=&quot;nofollow&quot; target=&quot;_NEW&quot;&gt; http://www.imdb.com/title/tt0817230/&lt;/a&gt; \n*************************************************\n\nVideo\nDuration                         : 2h 4mn\nOverall bit rate                 : 7 715 Kbps\nWidth                            : 1 920 pixels\nHeight                           : 1 036 pixels\nDisplay aspect ratio             : 1.857\nFrame rate                       : 23.976 fps\nStream size                      : 5.26 GiB (78%)\n\nAudio\nFormat                           : DTS\nFormat/Info                      : Digital Theater Systems\nBit rate                         : 1 510 Kbps\nChannel(s)                       : 6 channels\nChannel positions                : Front: L C R, Surround: L R, LFE\nSampling rate                    : 48.0 KHz\nResolution                       : 24 bits\nStream size                      : 1.31 GiB (20%)\nLanguage                         : English\n\nSubtitles: English, Brazilian, French\n*************************************\n","torrent":{"xt":"urn:btih:71c8c43e822977fd559628db0e1b218ec3e3994f","amp;dn":"Valentine%5C%27s.Day.2010.1080p.BluRay.DTS.x264-LTT","amp;tr":["udp%3A%2F%2Ftracker.openbittorrent.com%3A80","udp%3A%2F%2Fopen.demonii.com%3A1337","udp%3A%2F%2Ftracker.coppersurfer.tk%3A6969","udp%3A%2F%2Fexodus.desync.com%3A6969"],"infoHash":"71c8c43e822977fd559628db0e1b218ec3e3994f","infoHashBuffer":{"type":"Buffer","data":[113,200,196,62,130,41,119,253,85,150,40,219,14,27,33,142,195,227,153,79]},"announce":[],"urlList":[]}}